<?xml version="1.0" encoding="UTF-8"?>
<!DOCTYPE svg PUBLIC "-//W3C//DTD SVG 1.1//EN" "http://www.w3.org/Graphics/SVG/1.1/DTD/svg11.dtd">
<!-- Creator: CorelDRAW 2021 (64-Bit) -->
<svg xmlns="http://www.w3.org/2000/svg" xml:space="preserve" width="205.74mm" height="69.5414mm" version="1.1" style="shape-rendering:geometricPrecision; text-rendering:geometricPrecision; image-rendering:optimizeQuality; fill-rule:evenodd; clip-rule:evenodd"
viewBox="0 0 20574 6954.14"
 xmlns:xlink="http://www.w3.org/1999/xlink"
 xmlns:xodm="http://www.corel.com/coreldraw/odm/2003">
 <defs>
  <style type="text/css">
   <![CDATA[
    .fil0 {fill:#FEFEFE}
   ]]>
  </style>
 </defs>
 <g id="Layer_x0020_1">
  <metadata id="CorelCorpID_0Corel-Layer"/>
  <path class="fil0" d="M10977.47 6267.18l0 -117.99 425.6 0 0 372.7c-65.31,51.98 -132.73,91.31 -202.26,117.53 -69.54,26.22 -140.94,39.33 -213.98,39.33 -98.79,0 -188.46,-21.07 -269.22,-63.45 -80.54,-42.14 -141.64,-103.47 -182.61,-183.3 -41.2,-80.07 -61.8,-169.5 -61.8,-268.06 0,-97.86 20.36,-189.16 61.33,-274.14 40.97,-84.75 99.73,-147.72 176.52,-188.69 76.79,-41.2 165.28,-61.81 265.48,-61.81 72.57,0 138.36,11.71 197.12,35.36 58.76,23.64 104.88,56.42 138.12,98.32 33.48,42.14 58.76,97.16 76.09,164.81l-120.1 32.78c-15.22,-51.04 -33.95,-91.3 -56.19,-120.8 -22.47,-29.27 -54.31,-52.68 -95.98,-70.23 -41.44,-17.56 -87.56,-26.46 -138.36,-26.46 -60.63,0 -113.07,9.37 -157.55,27.86 -44.25,18.49 -79.83,42.84 -107.22,73.28 -27.16,30.2 -48.23,63.44 -63.21,99.49 -25.52,62.51 -38.4,129.93 -38.4,202.74 0,89.9 15.45,165.05 46.12,225.68 30.9,60.4 75.85,105.35 134.61,134.61 59,29.27 121.51,44.02 187.76,44.02 57.59,0 113.78,-11.24 168.56,-33.48 54.78,-22.48 96.22,-46.12 124.54,-71.64l0 -188.46 -294.97 0zm-10855.76 -644.03l2338.81 89.27 -0.03 -234.61 2705.07 102.08 -10.2 -398.11 2888.82 214.36 -20.41 1122.89 1531.16 -193.97 449.16 -3164.42 10.21 2541.75 275.61 -469.58 1571.99 234.79 142.91 -786 694.14 826.83 2419.26 -367.49 132.71 347.06 2184.47 -10.21 285.82 581.86 1327.01 377.7 0 -163.33 -193.94 -214.37 -193.96 -602.26 1122.86 234.78 790.82 -4616.62 -1746.67 837.25 -1799.26 -1104.65 13.42 657.77 -1731.67 -926.25 1630.99 630.92 -181.22 -1167.87 -1980.01 228.21 13.43 342.3 174.51 33.56 -60.41 1221.57 -127.53 -114.1 6.72 -932.96 -2778.73 0 6.71 -684.61 -2248.48 26.85 0 1134.31 -2053.84 -100.68 220.96 1047.14 -677.37 -1396.16 -1446.75 1060.83 -2138.15 266.61 -1093.28 -1361 -2577.37 -6.71 121.71 4855.27zm2393.19 -3079.35c0,-187.28 -47.24,-320.7 -141.71,-400.26 -95.29,-79.55 -227.88,-119.33 -397.76,-119.33l-673.72 0 0 1059.06 673.72 0c169.88,0 302.47,-43.09 397.76,-129.27 94.47,-86.19 141.71,-222.92 141.71,-410.2zm6141.35 -832.83l441.69 0 0 725.93 415.17 0 0 357.16 -415.17 0 0 1697.14c0,90.33 31.49,150.82 92.81,181.48 33.98,18.23 90.33,27.35 169.88,27.35 20.72,0 43.92,-0.83 67.95,-1.66 24.03,-0.83 52.21,-2.49 84.53,-5.8l0 344.73c-49.72,14.92 -101.93,24.86 -156.62,31.49 -53.87,6.63 -112.7,9.94 -175.68,9.94 -203.86,0 -342.25,-52.2 -415.17,-156.62 -72.93,-104.41 -109.39,-240.31 -109.39,-406.88l0 -1721.17 -352.19 0 0 -357.16 352.19 0 0 -725.93zm9989.73 2994.86c289.21,0 488.09,-109.39 595.82,-328.99 107.73,-218.77 161.59,-463.23 161.59,-731.72 0,-242.81 -38.94,-440.03 -116.84,-592.51 -122.65,-239.49 -334.79,-359.65 -635.6,-359.65 -267.66,0 -461.58,102.76 -582.56,306.61 -121.82,203.86 -182.31,449.98 -182.31,737.53 0,276.78 60.49,507.98 182.31,691.95 120.98,184.79 314.07,276.78 577.59,276.78zm16.57 -2394.06c335.62,0 618.2,111.87 850.23,335.61 231.2,222.92 347.22,551.9 347.22,985.31 0,419.31 -101.93,765.7 -305.79,1039.16 -204.68,273.47 -520.41,410.2 -949.67,410.2 -357.99,0 -641.4,-120.99 -851.88,-362.96 -210.49,-241.98 -315.73,-566.82 -315.73,-974.53 0,-436.72 111.05,-784.76 332.3,-1044.14 222.09,-258.55 519.59,-388.65 893.32,-388.65zm-2152.91 87.84l444.17 0 0 2587.97 -444.17 0 0 -2587.97zm0 -978.68l444.17 0 0 495.56 -444.17 0 0 -495.56zm-1093.03 0l437.55 0 0 3566.65 -437.55 0 0 -3566.65zm-1745.2 3284.9c289.21,0 488.09,-109.39 595.82,-328.99 107.73,-218.77 161.59,-463.23 161.59,-731.72 0,-242.81 -38.94,-440.03 -116.84,-592.51 -122.65,-239.49 -334.79,-359.65 -635.6,-359.65 -267.66,0 -461.58,102.76 -582.56,306.61 -121.82,203.86 -182.31,449.98 -182.31,737.53 0,276.78 60.49,507.98 182.31,691.95 120.98,184.79 314.07,276.78 577.59,276.78zm16.57 -2394.06c335.62,0 618.2,111.87 850.23,335.61 231.2,222.92 347.22,551.9 347.22,985.31 0,419.31 -101.93,765.7 -305.79,1039.16 -204.68,273.47 -520.41,410.2 -949.67,410.2 -357.99,0 -641.4,-120.99 -851.88,-362.96 -210.49,-241.98 -315.73,-566.82 -315.73,-974.53 0,-111.9 7.31,-217.95 21.88,-318.21l-1293.05 0 0 1511.52 -740.84 0 0 -3579.9 2555.65 0 0 626.48 -1814.81 0 0 825.37 1520.26 0c25.75,-38.06 53.47,-74.54 83.21,-109.4 222.09,-258.55 519.59,-388.65 893.32,-388.65zm-7110.9 75.41l415.17 0 0 449.14c33.98,-87.01 117.67,-193.91 250.26,-319.04 132.59,-125.13 285.9,-188.11 459.09,-188.11 8.29,0 21.55,0.83 41.44,2.49 19.06,1.65 52.2,4.97 99.44,9.94l0 460.75c-25.69,-4.98 -49.72,-8.29 -72.1,-9.12 -21.54,-1.66 -45.57,-2.49 -71.26,-2.49 -220.43,0 -389.48,70.44 -507.16,212.15 -118.5,141.7 -177.33,304.95 -177.33,488.92l0 1495.77 -437.55 0 0 -2600.4zm-1745.2 2318.65c289.21,0 488.09,-109.39 595.82,-328.99 107.73,-218.77 161.59,-463.23 161.59,-731.72 0,-242.81 -38.94,-440.03 -116.84,-592.51 -122.65,-239.49 -334.79,-359.65 -635.6,-359.65 -267.66,0 -461.58,102.76 -582.56,306.61 -121.82,203.86 -182.31,449.98 -182.31,737.53 0,276.78 60.49,507.98 182.31,691.95 120.98,184.79 314.07,276.78 577.59,276.78zm16.57 -2394.06c335.62,0 618.2,111.87 850.23,335.61 231.2,222.92 347.22,551.9 347.22,985.31 0,419.31 -101.93,765.7 -305.79,1039.16 -204.68,273.47 -520.41,410.2 -949.67,410.2 -357.99,0 -641.4,-120.99 -851.88,-362.96 -210.49,-241.98 -315.73,-566.82 -315.73,-974.53 0,-436.72 111.05,-784.76 332.3,-1044.14 222.09,-258.55 519.59,-388.65 893.32,-388.65zm-1592.71 229.54c0,422.63 -104.41,721.78 -314.07,896.64 -208.83,174.85 -507.98,261.86 -895.81,261.86l-744.15 0 0 1287.77 -740.84 0 0 -3579.9 1533.89 0c353.84,0 635.6,91.98 845.25,276.77 210.49,184.8 315.73,469.87 315.73,856.86zm13797.54 4120.58l0 -92.47c-46.11,71.87 -114.01,107.92 -203.67,107.92 -58.06,0 -111.44,-15.92 -159.9,-47.99 -48.69,-31.84 -86.38,-76.55 -113.3,-133.68 -26.69,-57.35 -40.04,-123.14 -40.04,-197.58 0,-72.58 12.18,-138.36 36.29,-197.59 24.35,-59 60.63,-104.41 109.09,-135.78 48.23,-31.61 102.54,-47.29 162.24,-47.29 44.01,0 83.11,9.36 117.29,27.85 34.18,18.5 62.04,42.85 83.58,72.58l0 -361.7 123.61 0 0 1005.73 -115.19 0zm-390.49 -363.57c0,93.17 19.67,162.71 59.23,208.82 39.33,46.12 85.92,69.07 139.53,69.07 54.08,0 99.96,-22.01 137.89,-66.02 37.69,-44.01 56.65,-111.2 56.65,-201.57 0,-99.26 -19.19,-172.3 -57.82,-218.89 -38.39,-46.59 -85.92,-69.77 -142.34,-69.77 -55.01,0 -100.9,22.25 -137.89,66.96 -36.75,44.71 -55.25,115.18 -55.25,211.4zm-861.28 363.57l0 -729.01 110.96 0 0 103.47c53.38,-79.36 130.64,-118.92 231.54,-118.92 44.01,0 84.28,7.96 121.03,23.64 36.76,15.69 64.38,36.52 82.64,62.04 18.26,25.52 31.14,55.95 38.4,91.07 4.44,22.94 6.78,62.97 6.78,120.09l0 447.62 -123.6 0 0 -442.93c0,-50.34 -4.69,-88.03 -14.29,-112.84 -9.59,-24.82 -26.68,-44.72 -51.03,-59.7 -24.35,-14.75 -53.14,-22.24 -85.92,-22.24 -52.44,0 -97.62,16.62 -135.78,50.1 -38.16,33.24 -57.12,96.68 -57.12,189.86l0 397.75 -123.61 0zm-827.58 -364.51c0,-134.61 37.46,-234.34 112.61,-299.19 62.51,-53.84 139.06,-80.76 229.19,-80.76 99.97,0 181.9,32.77 245.58,98.32 63.44,65.32 95.28,155.92 95.28,271.33 0,93.65 -14.04,167.16 -42.14,220.77 -28.09,53.61 -69.06,95.28 -122.9,125.01 -53.61,29.73 -112.38,44.48 -175.82,44.48 -102.07,0 -184.48,-32.54 -247.45,-97.86 -62.98,-65.31 -94.35,-159.42 -94.35,-282.1zm126.42 0.24c0,93.17 20.37,162.94 61.1,209.06 40.97,46.35 92.24,69.53 154.28,69.53 61.34,0 112.37,-23.18 153.34,-69.77 40.74,-46.59 61.1,-117.52 61.1,-212.8 0,-89.9 -20.6,-158.03 -61.57,-204.14 -40.96,-46.36 -92,-69.54 -152.87,-69.54 -62.04,0 -113.31,22.95 -154.28,69.07 -40.73,46.12 -61.1,115.65 -61.1,208.59zm-788.01 644.5l-14.05 -114.25c27.16,7.26 50.57,11.01 70.7,11.01 27.63,0 49.63,-4.69 66.02,-13.82 16.62,-9.13 30.2,-22 40.74,-38.39 7.72,-12.41 20.36,-43.08 37.69,-92.24 2.34,-6.79 5.85,-16.85 11,-30.2l-276.72 -731.35 132.04 0 152.17 420.92c19.9,53.15 37.46,109.33 53.14,168.33 14.29,-55.49 31.14,-110.27 50.81,-164.11l155.44 -425.14 123.38 0 -275.55 741.65c-29.73,79.83 -52.9,134.61 -69.53,164.81 -22,40.5 -47.29,70.24 -75.61,89.2 -28.56,18.96 -62.51,28.33 -101.84,28.33 -23.88,0 -50.57,-4.92 -79.83,-14.75zm-278.36 -516.21l127.83 16.85c-19.9,74.22 -57.13,132.04 -111.44,173.01 -54.31,40.97 -123.61,61.57 -208.12,61.57 -106.29,0 -190.57,-32.77 -252.84,-98.32 -62.27,-65.32 -93.41,-157.33 -93.41,-275.55 0,-122.2 31.37,-217.25 94.35,-284.68 62.97,-67.65 144.68,-101.36 245.11,-101.36 97.15,0 176.52,33 238.09,99.26 61.57,66.25 92.47,159.43 92.47,279.52 0,7.26 -0.23,18.26 -0.7,32.78l-542.9 0c4.68,79.83 27.16,141.17 67.89,183.54 40.5,42.37 91.3,63.68 151.94,63.68 45.18,0 83.81,-11.94 115.65,-35.82 32.07,-23.88 57.35,-62.04 76.08,-114.48zm-404.54 -198.06l405.95 0c-5.39,-61.33 -21.07,-107.22 -46.59,-137.89 -39.1,-47.52 -90.13,-71.4 -152.64,-71.4 -56.65,0 -104.18,18.96 -142.8,56.89 -38.4,37.92 -59.7,88.73 -63.92,152.4zm-760.15 434.04l-115.18 0 0 -1005.73 123.61 0 0 358.89c52.21,-65.08 118.69,-97.62 199.7,-97.62 44.71,0 87.32,8.89 127.35,26.92 40.03,18.02 72.81,43.54 98.79,76.08 25.76,32.78 46.12,72.11 60.64,118.23 14.75,45.88 22,95.28 22,147.72 0,124.55 -30.9,221 -92.47,288.89 -61.8,68.13 -135.78,102.07 -222.17,102.07 -85.91,0 -153.34,-35.82 -202.27,-107.22l0 91.77zm-1.4 -369.89c0,87.09 11.94,150.06 35.58,188.92 38.87,63.45 91.31,95.29 157.56,95.29 54.08,0 100.66,-23.41 139.76,-70.24 39.33,-46.82 59,-116.58 59,-209.29 0,-95.05 -18.73,-165.05 -56.42,-210.23 -37.7,-45.18 -83.35,-67.89 -136.72,-67.89 -54.08,0 -100.67,23.41 -139.77,70.23 -39.33,46.82 -58.99,114.48 -58.99,203.21zm-1330.21 5.38c0,-134.61 37.46,-234.34 112.61,-299.19 62.51,-53.84 139.06,-80.76 229.19,-80.76 99.97,0 181.9,32.77 245.58,98.32 63.44,65.32 95.28,155.92 95.28,271.33 0,93.65 -14.04,167.16 -42.14,220.77 -28.09,53.61 -69.06,95.28 -122.9,125.01 -53.61,29.73 -112.38,44.48 -175.82,44.48 -102.07,0 -184.48,-32.54 -247.45,-97.86 -62.98,-65.31 -94.35,-159.42 -94.35,-282.1zm126.42 0.24c0,93.17 20.37,162.94 61.1,209.06 40.97,46.35 92.24,69.53 154.28,69.53 61.34,0 112.37,-23.18 153.34,-69.77 40.74,-46.59 61.1,-117.52 61.1,-212.8 0,-89.9 -20.6,-158.03 -61.57,-204.14 -40.96,-46.36 -92,-69.54 -152.87,-69.54 -62.04,0 -113.31,22.95 -154.28,69.07 -40.73,46.12 -61.1,115.65 -61.1,208.59z"/>
 </g>
</svg>
