<?xml version="1.0" encoding="UTF-8"?>
<!DOCTYPE svg PUBLIC "-//W3C//DTD SVG 1.1//EN" "http://www.w3.org/Graphics/SVG/1.1/DTD/svg11.dtd">
<!-- Creator: CorelDRAW 2021 (64-Bit) -->
<svg xmlns="http://www.w3.org/2000/svg" xml:space="preserve" width="205.974mm" height="69.652mm" version="1.1" style="shape-rendering:geometricPrecision; text-rendering:geometricPrecision; image-rendering:optimizeQuality; fill-rule:evenodd; clip-rule:evenodd"
viewBox="0 0 20597.38 6965.2"
 xmlns:xlink="http://www.w3.org/1999/xlink"
 xmlns:xodm="http://www.corel.com/coreldraw/odm/2003">
 <defs>
  <style type="text/css">
   <![CDATA[
    .str0 {stroke:black;stroke-width:20;stroke-miterlimit:22.9256}
    .fil0 {fill:black}
    .fil1 {fill:white}
    .fnt2 {font-weight:normal;font-size:1404.65px;font-family:'Arial'}
    .fnt1 {font-weight:normal;font-size:4972.09px;font-family:'Helvetica'}
    .fnt0 {font-weight:bold;font-size:4972.09px;font-family:'Helvetica'}
   ]]>
  </style>
 </defs>
 <g id="Layer_x0020_1">
  <metadata id="CorelCorpID_0Corel-Layer"/>
  <polygon class="fil0 str0" points="126.74,5637.13 2465.55,5726.4 2465.52,5491.79 5170.59,5593.87 5160.39,5195.76 8049.21,5410.12 8028.8,6533.01 9559.96,6339.04 10009.12,3174.62 10019.33,5716.37 10294.94,5246.79 11866.93,5481.58 12009.84,4695.58 12703.98,5522.41 15123.24,5154.92 15255.95,5501.98 17440.42,5491.77 17726.24,6073.63 19053.25,6451.33 19053.25,6288 18859.31,6073.63 18665.35,5471.37 19788.21,5706.15 20579.03,1089.53 18832.36,1926.78 17033.1,822.13 17046.52,1479.9 15314.85,553.65 16945.84,1184.57 16764.62,16.7 14784.61,244.91 14798.04,587.21 14972.55,620.77 14912.14,1842.34 14784.61,1728.24 14791.33,795.28 12012.6,795.28 12019.31,110.67 9770.83,137.52 9770.83,1271.83 7716.99,1171.15 7937.95,2218.29 7260.58,822.13 5813.83,1882.96 3675.68,2149.57 2582.4,788.57 5.03,781.86 "/>
  <text x="168.13" y="5001.57"  class="fil1 fnt0">P</text>
  <text x="10082.47" y="4951.86"  class="fil1 fnt0">F</text>
  <text x="3484.5" y="5001.57"  class="fil1 fnt1">or</text>
  <text x="12324.04" y="5001.57"  class="fil1 fnt1">olio</text>
  <text x="8253.57" y="5051.29"  class="fil1 fnt1">t</text>
  <text x="10403.8" y="6675.89"  class="fil0 fnt2">Go beyond</text>
 </g>
</svg>
